# xmcd
#
# Track frame offsets:
#	299
#	12692
#	24169
#	36699
#	49332
#	63032
#	77104
#	94524
#	108137
#	123137
#	133074
#	147887
#	161597
#	174754
#	189357
#	204184
#
# Disc length: 2894 seconds
#
# Revision: 0
# Processed by: cddbd v1.5.2PL0 Copyright (c) Steve Scherf et al.
# Submitted via: audiograbber 1.83.01
#
DISCID=ca0b4b10
DTITLE=Truck stop - Weihnachten im wilden Westen
DYEAR=1900
DGENRE=Weihnachten
TTITLE0=Wir wünschen Euch ein frohes Fest
TTITLE1=Erwin, der dicke Schneemann
TTITLE2=Stille Nacht
TTITLE3=Jingle Bells
TTITLE4=Ich wünsche mir zum Weihnachtsfest
TTITLE5=Papi, nur eines wünsch ich mir
TTITLE6=Big Old Joe, der Weihnachtsbär
TTITLE7=Der Weihnachtsmann sah aus wie Papa
TTITLE8=Weihnachtstraum Montana
TTITLE9=Der Weihnachtsmann kommt heute in die Stadt
TTITLE10=Söhnchen, mein Söhnchen
TTITLE11=Weiße Weihnacht im wilden Westen
TTITLE12=Ich schenk dir einen Schneemann
TTITLE13=Kommt der Weihnachtsmann nach Texas
TTITLE14=Genau zur Weihnachtszeit
TTITLE15=Weihnacht an der Waterkant
EXTD=
EXTT0=
EXTT1=
EXTT2=
EXTT3=
EXTT4=
EXTT5=
EXTT6=
EXTT7=
EXTT8=
EXTT9=
EXTT10=
EXTT11=
EXTT12=
EXTT13=
EXTT14=
EXTT15=
PLAYORDER=
